%TF.GenerationSoftware,KiCad,Pcbnew,9.0.0*%
%TF.CreationDate,2025-07-16T11:25:13+02:00*%
%TF.ProjectId,wordclock-v3,76332e30-5f56-46f6-9c6c-706c6174696e,rev?*%
%TF.SameCoordinates,Original*%
%TF.FileFunction,Profile,NP*%
%FSLAX46Y46*%
G04 Gerber Fmt 4.6, Leading zero omitted, Abs format (unit mm)*
G04 Created by KiCad (PCBNEW 9.0.0) date 2025-07-16 11:25:13*
%MOMM*%
%LPD*%
G01*
G04 APERTURE LIST*
%TA.AperFunction,Profile*%
%ADD10C,0.200000*%
%TD*%
%TA.AperFunction,Profile*%
%ADD11C,0.000000*%
%TD*%
G04 APERTURE END LIST*
D10*
X402500000Y5000000D02*
G75*
G02*
X405000000Y2500000I0J-2500000D01*
G01*
X405000000Y-402500000D02*
G75*
G02*
X402500000Y-405000000I-2500000J0D01*
G01*
X386700000Y-15000000D02*
G75*
G02*
X383300000Y-15000000I-1700000J0D01*
G01*
X383300000Y-15000000D02*
G75*
G02*
X386700000Y-15000000I1700000J0D01*
G01*
X-5000000Y-402500000D02*
X-5000000Y2500000D01*
X113725001Y-394170000D02*
G75*
G02*
X112725001Y-395170001I-1000001J0D01*
G01*
X362500000Y-46500000D02*
X397500000Y-46500000D01*
X397500000Y-136500000D01*
X362500000Y-136500000D01*
X362500000Y-46500000D01*
X16700000Y-385000000D02*
G75*
G02*
X13300000Y-385000000I-1700000J0D01*
G01*
X13300000Y-385000000D02*
G75*
G02*
X16700000Y-385000000I1700000J0D01*
G01*
X112725001Y-395170000D02*
X104854999Y-395170000D01*
X211032500Y-37830000D02*
G75*
G02*
X210032500Y-38830000I-1000000J0D01*
G01*
X-5000000Y2500000D02*
G75*
G02*
X-2500000Y5000000I2500000J0D01*
G01*
X103854999Y-374820000D02*
G75*
G02*
X104854999Y-373819999I1000001J0D01*
G01*
X2500000Y-46500000D02*
X37500000Y-46500000D01*
X37500000Y-136500000D01*
X2500000Y-136500000D01*
X2500000Y-46500000D01*
X-2500000Y-405000000D02*
G75*
G02*
X-5000000Y-402500000I0J2500000D01*
G01*
X104854999Y-395170000D02*
G75*
G02*
X103855000Y-394170000I1J1000000D01*
G01*
X402500000Y-405000000D02*
X-2500000Y-405000000D01*
X210032500Y-38830000D02*
X204502500Y-38830000D01*
X103854999Y-394170000D02*
X103854999Y-374820000D01*
X204502500Y-38830000D02*
G75*
G02*
X203502500Y-37830000I0J1000000D01*
G01*
X203502500Y-37830000D02*
X203502500Y-26710000D01*
X16700000Y-15000000D02*
G75*
G02*
X13300000Y-15000000I-1700000J0D01*
G01*
X13300000Y-15000000D02*
G75*
G02*
X16700000Y-15000000I1700000J0D01*
G01*
X112725001Y-373820000D02*
G75*
G02*
X113725000Y-374820000I-1J-1000000D01*
G01*
X-2500000Y5000000D02*
X402500000Y5000000D01*
X113725001Y-374820000D02*
X113725001Y-394170000D01*
X405000000Y2500000D02*
X405000000Y-402500000D01*
X211032500Y-26710000D02*
X211032500Y-37830000D01*
X104854999Y-373820000D02*
X112725001Y-373820000D01*
X204502500Y-25710000D02*
X210032500Y-25710000D01*
X386700000Y-385000000D02*
G75*
G02*
X383300000Y-385000000I-1700000J0D01*
G01*
X383300000Y-385000000D02*
G75*
G02*
X386700000Y-385000000I1700000J0D01*
G01*
X203502500Y-26710000D02*
G75*
G02*
X204502500Y-25710000I1000000J0D01*
G01*
X210032500Y-25710000D02*
G75*
G02*
X211032500Y-26710000I0J-1000000D01*
G01*
D11*
%TA.AperFunction,Profile*%
%TO.C,J5*%
G36*
X200239376Y-400507300D02*
G01*
X200384265Y-400567315D01*
X200514663Y-400654444D01*
X200625556Y-400765337D01*
X200712685Y-400895735D01*
X200772700Y-401040624D01*
X200803296Y-401194438D01*
X200803296Y-401351266D01*
X200772700Y-401505080D01*
X200712685Y-401649969D01*
X200625556Y-401780367D01*
X200514663Y-401891260D01*
X200384265Y-401978389D01*
X200239376Y-402038404D01*
X200085562Y-402069000D01*
X199928734Y-402069000D01*
X199774920Y-402038404D01*
X199630031Y-401978389D01*
X199499633Y-401891260D01*
X199388740Y-401780367D01*
X199301611Y-401649969D01*
X199241596Y-401505080D01*
X199211000Y-401351266D01*
X199211000Y-401194438D01*
X199241596Y-401040624D01*
X199301611Y-400895735D01*
X199388740Y-400765337D01*
X199499633Y-400654444D01*
X199630031Y-400567315D01*
X199774920Y-400507300D01*
X199928734Y-400476704D01*
X200085562Y-400476704D01*
X200239376Y-400507300D01*
G37*
%TD.AperFunction*%
%TA.AperFunction,Profile*%
%TO.C,J3*%
G36*
X170563506Y-397719545D02*
G01*
X170648286Y-397768492D01*
X170717508Y-397837714D01*
X170766455Y-397922494D01*
X170791792Y-398017053D01*
X170791792Y-398114947D01*
X170766455Y-398209506D01*
X170717508Y-398294286D01*
X170648286Y-398363508D01*
X170563506Y-398412455D01*
X170468947Y-398437792D01*
X170371053Y-398437792D01*
X170276494Y-398412455D01*
X170191714Y-398363508D01*
X170122492Y-398294286D01*
X170073545Y-398209506D01*
X170048208Y-398114947D01*
X170048208Y-398017053D01*
X170073545Y-397922494D01*
X170122492Y-397837714D01*
X170191714Y-397768492D01*
X170276494Y-397719545D01*
X170371053Y-397694208D01*
X170468947Y-397694208D01*
X170563506Y-397719545D01*
G37*
%TD.AperFunction*%
%TA.AperFunction,Profile*%
G36*
X176363506Y-397719545D02*
G01*
X176448286Y-397768492D01*
X176517508Y-397837714D01*
X176566455Y-397922494D01*
X176591792Y-398017053D01*
X176591792Y-398114947D01*
X176566455Y-398209506D01*
X176517508Y-398294286D01*
X176448286Y-398363508D01*
X176363506Y-398412455D01*
X176268947Y-398437792D01*
X176171053Y-398437792D01*
X176076494Y-398412455D01*
X175991714Y-398363508D01*
X175922492Y-398294286D01*
X175873545Y-398209506D01*
X175848208Y-398114947D01*
X175848208Y-398017053D01*
X175873545Y-397922494D01*
X175922492Y-397837714D01*
X175991714Y-397768492D01*
X176076494Y-397719545D01*
X176171053Y-397694208D01*
X176268947Y-397694208D01*
X176363506Y-397719545D01*
G37*
%TD.AperFunction*%
%TD*%
M02*
