%TF.GenerationSoftware,KiCad,Pcbnew,9.0.0*%
%TF.CreationDate,2025-07-16T11:25:12+02:00*%
%TF.ProjectId,wordclock-v3,76332e30-5f56-46f6-9c6c-706c6174696e,rev?*%
%TF.SameCoordinates,Original*%
%TF.FileFunction,Paste,Top*%
%TF.FilePolarity,Positive*%
%FSLAX46Y46*%
G04 Gerber Fmt 4.6, Leading zero omitted, Abs format (unit mm)*
G04 Created by KiCad (PCBNEW 9.0.0) date 2025-07-16 11:25:12*
%MOMM*%
%LPD*%
G01*
G04 APERTURE LIST*
G04 Aperture macros list*
%AMRoundRect*
0 Rectangle with rounded corners*
0 $1 Rounding radius*
0 $2 $3 $4 $5 $6 $7 $8 $9 X,Y pos of 4 corners*
0 Add a 4 corners polygon primitive as box body*
4,1,4,$2,$3,$4,$5,$6,$7,$8,$9,$2,$3,0*
0 Add four circle primitives for the rounded corners*
1,1,$1+$1,$2,$3*
1,1,$1+$1,$4,$5*
1,1,$1+$1,$6,$7*
1,1,$1+$1,$8,$9*
0 Add four rect primitives between the rounded corners*
20,1,$1+$1,$2,$3,$4,$5,0*
20,1,$1+$1,$4,$5,$6,$7,0*
20,1,$1+$1,$6,$7,$8,$9,0*
20,1,$1+$1,$8,$9,$2,$3,0*%
G04 Aperture macros list end*
%ADD10C,0.000000*%
%ADD11RoundRect,0.250000X0.325000X0.650000X-0.325000X0.650000X-0.325000X-0.650000X0.325000X-0.650000X0*%
%ADD12RoundRect,0.250000X0.650000X-0.325000X0.650000X0.325000X-0.650000X0.325000X-0.650000X-0.325000X0*%
%ADD13R,1.500000X1.000000*%
%ADD14RoundRect,0.225000X-0.250000X0.225000X-0.250000X-0.225000X0.250000X-0.225000X0.250000X0.225000X0*%
%ADD15RoundRect,0.225000X-0.225000X-0.250000X0.225000X-0.250000X0.225000X0.250000X-0.225000X0.250000X0*%
%ADD16RoundRect,0.135000X-0.185000X0.135000X-0.185000X-0.135000X0.185000X-0.135000X0.185000X0.135000X0*%
%ADD17RoundRect,0.135000X0.185000X-0.135000X0.185000X0.135000X-0.185000X0.135000X-0.185000X-0.135000X0*%
%ADD18RoundRect,0.140000X-0.170000X0.140000X-0.170000X-0.140000X0.170000X-0.140000X0.170000X0.140000X0*%
%ADD19R,0.300000X1.300000*%
%ADD20RoundRect,0.135000X0.135000X0.185000X-0.135000X0.185000X-0.135000X-0.185000X0.135000X-0.185000X0*%
%ADD21RoundRect,0.140000X0.170000X-0.140000X0.170000X0.140000X-0.170000X0.140000X-0.170000X-0.140000X0*%
%ADD22RoundRect,0.150000X0.150000X-0.512500X0.150000X0.512500X-0.150000X0.512500X-0.150000X-0.512500X0*%
%ADD23RoundRect,0.140000X0.140000X0.170000X-0.140000X0.170000X-0.140000X-0.170000X0.140000X-0.170000X0*%
%ADD24RoundRect,0.150000X0.825000X0.150000X-0.825000X0.150000X-0.825000X-0.150000X0.825000X-0.150000X0*%
%ADD25RoundRect,0.200000X0.200000X0.275000X-0.200000X0.275000X-0.200000X-0.275000X0.200000X-0.275000X0*%
%ADD26RoundRect,0.140000X-0.140000X-0.170000X0.140000X-0.170000X0.140000X0.170000X-0.140000X0.170000X0*%
%ADD27R,0.420000X0.600000*%
%ADD28RoundRect,0.100000X0.225000X0.100000X-0.225000X0.100000X-0.225000X-0.100000X0.225000X-0.100000X0*%
%ADD29RoundRect,0.375000X-0.375000X0.625000X-0.375000X-0.625000X0.375000X-0.625000X0.375000X0.625000X0*%
%ADD30RoundRect,0.500000X-1.400000X0.500000X-1.400000X-0.500000X1.400000X-0.500000X1.400000X0.500000X0*%
%ADD31RoundRect,0.250000X0.450000X-0.262500X0.450000X0.262500X-0.450000X0.262500X-0.450000X-0.262500X0*%
%ADD32RoundRect,0.250000X-0.650000X1.000000X-0.650000X-1.000000X0.650000X-1.000000X0.650000X1.000000X0*%
%ADD33R,1.000000X2.500000*%
%ADD34R,1.800000X1.000000*%
G04 APERTURE END LIST*
D10*
%TO.C,J3*%
G36*
X171720000Y-397447500D02*
G01*
X171420000Y-397447500D01*
X171420000Y-396147500D01*
X171720000Y-396147500D01*
X171720000Y-397447500D01*
G37*
G36*
X172220000Y-397447500D02*
G01*
X171920000Y-397447500D01*
X171920000Y-396147500D01*
X172220000Y-396147500D01*
X172220000Y-397447500D01*
G37*
G36*
X172720000Y-397447500D02*
G01*
X172420000Y-397447500D01*
X172420000Y-396147500D01*
X172720000Y-396147500D01*
X172720000Y-397447500D01*
G37*
G36*
X173220000Y-397447500D02*
G01*
X172920000Y-397447500D01*
X172920000Y-396147500D01*
X173220000Y-396147500D01*
X173220000Y-397447500D01*
G37*
G36*
X173720000Y-397447500D02*
G01*
X173420000Y-397447500D01*
X173420000Y-396147500D01*
X173720000Y-396147500D01*
X173720000Y-397447500D01*
G37*
G36*
X174220000Y-397447500D02*
G01*
X173920000Y-397447500D01*
X173920000Y-396147500D01*
X174220000Y-396147500D01*
X174220000Y-397447500D01*
G37*
G36*
X174719500Y-397447500D02*
G01*
X174419500Y-397447500D01*
X174419500Y-396147500D01*
X174719500Y-396147500D01*
X174719500Y-397447500D01*
G37*
G36*
X175220000Y-397447500D02*
G01*
X174920000Y-397447500D01*
X174920000Y-396147500D01*
X175220000Y-396147500D01*
X175220000Y-397447500D01*
G37*
G36*
X170420000Y-397447500D02*
G01*
X170120000Y-397447500D01*
X169820000Y-397447500D01*
X169820000Y-396147500D01*
X170120000Y-396147500D01*
X170420000Y-396147500D01*
X170420000Y-397447500D01*
G37*
G36*
X171220000Y-397447500D02*
G01*
X170920000Y-397447500D01*
X170620000Y-397447500D01*
X170620000Y-396147500D01*
X170920000Y-396147500D01*
X171220000Y-396147500D01*
X171220000Y-397447500D01*
G37*
G36*
X176020000Y-397447000D02*
G01*
X175720000Y-397447000D01*
X175420000Y-397447000D01*
X175420000Y-396147500D01*
X175720000Y-396147500D01*
X176020000Y-396147500D01*
X176020000Y-397447000D01*
G37*
G36*
X176820000Y-397447000D02*
G01*
X176520000Y-397447000D01*
X176220000Y-397447000D01*
X176220000Y-396147500D01*
X176520000Y-396147500D01*
X176820000Y-396147500D01*
X176820000Y-397447000D01*
G37*
G36*
X169039500Y-400847500D02*
G01*
X169069500Y-400850500D01*
X169099000Y-400854500D01*
X169128500Y-400860500D01*
X169157500Y-400868000D01*
X169186000Y-400877000D01*
X169214000Y-400887000D01*
X169241500Y-400898500D01*
X169268500Y-400911500D01*
X169295000Y-400926000D01*
X169320500Y-400941500D01*
X169345000Y-400958500D01*
X169369000Y-400976500D01*
X169392000Y-400996000D01*
X169414000Y-401016000D01*
X169434500Y-401037500D01*
X169454500Y-401060000D01*
X169473000Y-401083500D01*
X169490500Y-401107500D01*
X169507000Y-401133000D01*
X169522000Y-401158500D01*
X169535500Y-401185500D01*
X169548000Y-401212500D01*
X169558500Y-401240500D01*
X169568000Y-401269000D01*
X169576500Y-401297500D01*
X169583000Y-401326500D01*
X169588000Y-401356000D01*
X169592000Y-401386000D01*
X169594000Y-401415500D01*
X169595000Y-401445500D01*
X169595000Y-402045500D01*
X169594000Y-402075500D01*
X169592000Y-402105500D01*
X169588000Y-402135000D01*
X169583000Y-402164500D01*
X169576500Y-402193500D01*
X169568000Y-402222500D01*
X169558500Y-402251000D01*
X169548000Y-402278500D01*
X169535500Y-402306000D01*
X169522000Y-402332500D01*
X169507000Y-402358500D01*
X169490500Y-402383500D01*
X169473000Y-402408000D01*
X169454500Y-402431500D01*
X169434500Y-402453500D01*
X169414000Y-402475000D01*
X169392000Y-402495500D01*
X169369000Y-402514500D01*
X169345000Y-402533000D01*
X169320500Y-402549500D01*
X169295000Y-402565000D01*
X169268500Y-402579500D01*
X169241500Y-402592500D01*
X169214000Y-402604000D01*
X169186000Y-402614500D01*
X169157500Y-402623000D01*
X169128500Y-402630500D01*
X169099000Y-402636500D01*
X169069500Y-402641000D01*
X169039500Y-402644000D01*
X169010000Y-402645500D01*
X168980000Y-402645500D01*
X168950000Y-402644000D01*
X168920500Y-402641000D01*
X168890500Y-402636500D01*
X168861500Y-402630500D01*
X168832500Y-402623000D01*
X168804000Y-402614500D01*
X168775500Y-402604000D01*
X168748000Y-402592500D01*
X168721000Y-402579500D01*
X168695000Y-402565000D01*
X168669500Y-402549500D01*
X168644500Y-402533000D01*
X168621000Y-402514500D01*
X168598000Y-402495500D01*
X168576000Y-402475000D01*
X168555000Y-402453500D01*
X168535000Y-402431500D01*
X168516500Y-402408000D01*
X168499000Y-402383500D01*
X168483000Y-402358500D01*
X168468000Y-402332500D01*
X168454500Y-402306000D01*
X168442000Y-402278500D01*
X168431000Y-402251000D01*
X168421500Y-402222500D01*
X168413500Y-402193500D01*
X168407000Y-402164500D01*
X168401500Y-402135000D01*
X168398000Y-402105500D01*
X168395500Y-402075500D01*
X168395000Y-402045500D01*
X168395000Y-401445500D01*
X168395500Y-401415500D01*
X168398000Y-401386000D01*
X168401500Y-401356000D01*
X168407000Y-401326500D01*
X168413500Y-401297500D01*
X168421500Y-401269000D01*
X168431000Y-401240500D01*
X168442000Y-401212500D01*
X168454500Y-401185500D01*
X168468000Y-401158500D01*
X168483000Y-401133000D01*
X168499000Y-401107500D01*
X168516500Y-401083500D01*
X168535000Y-401060000D01*
X168555000Y-401037500D01*
X168576000Y-401016000D01*
X168598000Y-400996000D01*
X168621000Y-400976500D01*
X168644500Y-400958500D01*
X168669500Y-400941500D01*
X168695000Y-400926000D01*
X168721000Y-400911500D01*
X168748000Y-400898500D01*
X168775500Y-400887000D01*
X168804000Y-400877000D01*
X168832500Y-400868000D01*
X168861500Y-400860500D01*
X168890500Y-400854500D01*
X168920500Y-400850500D01*
X168950000Y-400847500D01*
X168980000Y-400846000D01*
X169010000Y-400846000D01*
X169039500Y-400847500D01*
G37*
G36*
X169039500Y-396567500D02*
G01*
X169069500Y-396570500D01*
X169099000Y-396575000D01*
X169128500Y-396581000D01*
X169157500Y-396588000D01*
X169186000Y-396597000D01*
X169214000Y-396607000D01*
X169241500Y-396619000D01*
X169268500Y-396632000D01*
X169295000Y-396646000D01*
X169320500Y-396661500D01*
X169345000Y-396678500D01*
X169369000Y-396696500D01*
X169392000Y-396716000D01*
X169414000Y-396736000D01*
X169434500Y-396757500D01*
X169454500Y-396780000D01*
X169473000Y-396803500D01*
X169490500Y-396827500D01*
X169507000Y-396853000D01*
X169522000Y-396879000D01*
X169535500Y-396905500D01*
X169548000Y-396932500D01*
X169558500Y-396960500D01*
X169568000Y-396989000D01*
X169576500Y-397017500D01*
X169583000Y-397047000D01*
X169588000Y-397076500D01*
X169592000Y-397106000D01*
X169594000Y-397136000D01*
X169595000Y-397165500D01*
X169595000Y-397965500D01*
X169594000Y-397995500D01*
X169592000Y-398025500D01*
X169588000Y-398055000D01*
X169583000Y-398084500D01*
X169576500Y-398114000D01*
X169568000Y-398142500D01*
X169558500Y-398171000D01*
X169548000Y-398199000D01*
X169535500Y-398226000D01*
X169522000Y-398252500D01*
X169507000Y-398278500D01*
X169490500Y-398303500D01*
X169473000Y-398328000D01*
X169454500Y-398351500D01*
X169434500Y-398374000D01*
X169414000Y-398395000D01*
X169392000Y-398415500D01*
X169369000Y-398435000D01*
X169345000Y-398453000D01*
X169320500Y-398469500D01*
X169295000Y-398485500D01*
X169268500Y-398499500D01*
X169241500Y-398512500D01*
X169214000Y-398524000D01*
X169186000Y-398534500D01*
X169157500Y-398543500D01*
X169128500Y-398550500D01*
X169099000Y-398556500D01*
X169069500Y-398561000D01*
X169039500Y-398564000D01*
X169010000Y-398565500D01*
X168980000Y-398565500D01*
X168950000Y-398564000D01*
X168920500Y-398561000D01*
X168890500Y-398556500D01*
X168861500Y-398550500D01*
X168832500Y-398543500D01*
X168804000Y-398534500D01*
X168775500Y-398524000D01*
X168748000Y-398512500D01*
X168721000Y-398499500D01*
X168695000Y-398485500D01*
X168669500Y-398469500D01*
X168644500Y-398453000D01*
X168621000Y-398435000D01*
X168598000Y-398415500D01*
X168576000Y-398395000D01*
X168555000Y-398374000D01*
X168535000Y-398351500D01*
X168516500Y-398328000D01*
X168499000Y-398303500D01*
X168483000Y-398278500D01*
X168468000Y-398252500D01*
X168454500Y-398226000D01*
X168442000Y-398199000D01*
X168431000Y-398171000D01*
X168421500Y-398142500D01*
X168413500Y-398114000D01*
X168407000Y-398084500D01*
X168401500Y-398055000D01*
X168398000Y-398025500D01*
X168395500Y-397995500D01*
X168395000Y-397965500D01*
X168395000Y-397165500D01*
X168395500Y-397136000D01*
X168398000Y-397106000D01*
X168401500Y-397076500D01*
X168407000Y-397047000D01*
X168413500Y-397017500D01*
X168421500Y-396989000D01*
X168431000Y-396960500D01*
X168442000Y-396932500D01*
X168454500Y-396905500D01*
X168468000Y-396879000D01*
X168483000Y-396853000D01*
X168499000Y-396827500D01*
X168516500Y-396803500D01*
X168535000Y-396780000D01*
X168555000Y-396757500D01*
X168576000Y-396736000D01*
X168598000Y-396716000D01*
X168621000Y-396696500D01*
X168644500Y-396678500D01*
X168669500Y-396661500D01*
X168695000Y-396646000D01*
X168721000Y-396632000D01*
X168748000Y-396619000D01*
X168775500Y-396607000D01*
X168804000Y-396597000D01*
X168832500Y-396588000D01*
X168861500Y-396581000D01*
X168890500Y-396575000D01*
X168920500Y-396570500D01*
X168950000Y-396567500D01*
X168980000Y-396566000D01*
X169010000Y-396566000D01*
X169039500Y-396567500D01*
G37*
G36*
X177690000Y-396567500D02*
G01*
X177719500Y-396570500D01*
X177749500Y-396575000D01*
X177778500Y-396581000D01*
X177807500Y-396588000D01*
X177836000Y-396597000D01*
X177864500Y-396607000D01*
X177892000Y-396619000D01*
X177919000Y-396632000D01*
X177945000Y-396646000D01*
X177970500Y-396661500D01*
X177995500Y-396678500D01*
X178019000Y-396696500D01*
X178042000Y-396716000D01*
X178064000Y-396736000D01*
X178085000Y-396757500D01*
X178105000Y-396780000D01*
X178123500Y-396803500D01*
X178141000Y-396827500D01*
X178157000Y-396853000D01*
X178172000Y-396879000D01*
X178185500Y-396905500D01*
X178198000Y-396932500D01*
X178209000Y-396960500D01*
X178218500Y-396989000D01*
X178226500Y-397017500D01*
X178233000Y-397047000D01*
X178238500Y-397076500D01*
X178242000Y-397106000D01*
X178244500Y-397136000D01*
X178245000Y-397165500D01*
X178245000Y-397965500D01*
X178244500Y-397995500D01*
X178242000Y-398025500D01*
X178238500Y-398055000D01*
X178233000Y-398084500D01*
X178226500Y-398114000D01*
X178218500Y-398142500D01*
X178209000Y-398171000D01*
X178198000Y-398199000D01*
X178185500Y-398226000D01*
X178172000Y-398252500D01*
X178157000Y-398278500D01*
X178141000Y-398303500D01*
X178123500Y-398328000D01*
X178105000Y-398351500D01*
X178085000Y-398374000D01*
X178064000Y-398395000D01*
X178042000Y-398415500D01*
X178019000Y-398435000D01*
X177995500Y-398453000D01*
X177970500Y-398469500D01*
X177945000Y-398485500D01*
X177919000Y-398499500D01*
X177892000Y-398512500D01*
X177864500Y-398524000D01*
X177836000Y-398534500D01*
X177807500Y-398543500D01*
X177778500Y-398550500D01*
X177749500Y-398556500D01*
X177719500Y-398561000D01*
X177690000Y-398564000D01*
X177660000Y-398565500D01*
X177630000Y-398565500D01*
X177600500Y-398564000D01*
X177570500Y-398561000D01*
X177541000Y-398556500D01*
X177511500Y-398550500D01*
X177482500Y-398543500D01*
X177454000Y-398534500D01*
X177426000Y-398524000D01*
X177398500Y-398512500D01*
X177371500Y-398499500D01*
X177345000Y-398485500D01*
X177319500Y-398469500D01*
X177295000Y-398453000D01*
X177271000Y-398435000D01*
X177248000Y-398415500D01*
X177226000Y-398395000D01*
X177205500Y-398374000D01*
X177185500Y-398351500D01*
X177167000Y-398328000D01*
X177149500Y-398303500D01*
X177133000Y-398278500D01*
X177118000Y-398252500D01*
X177104500Y-398226000D01*
X177092000Y-398199000D01*
X177081500Y-398171000D01*
X177072000Y-398142500D01*
X177063500Y-398114000D01*
X177057000Y-398084500D01*
X177052000Y-398055000D01*
X177048000Y-398025500D01*
X177046000Y-397995500D01*
X177045000Y-397965500D01*
X177045000Y-397165500D01*
X177046000Y-397136000D01*
X177048000Y-397106000D01*
X177052000Y-397076500D01*
X177057000Y-397047000D01*
X177063500Y-397017500D01*
X177072000Y-396989000D01*
X177081500Y-396960500D01*
X177092000Y-396932500D01*
X177104500Y-396905500D01*
X177118000Y-396879000D01*
X177133000Y-396853000D01*
X177149500Y-396827500D01*
X177167000Y-396803500D01*
X177185500Y-396780000D01*
X177205500Y-396757500D01*
X177226000Y-396736000D01*
X177248000Y-396716000D01*
X177271000Y-396696500D01*
X177295000Y-396678500D01*
X177319500Y-396661500D01*
X177345000Y-396646000D01*
X177371500Y-396632000D01*
X177398500Y-396619000D01*
X177426000Y-396607000D01*
X177454000Y-396597000D01*
X177482500Y-396588000D01*
X177511500Y-396581000D01*
X177541000Y-396575000D01*
X177570500Y-396570500D01*
X177600500Y-396567500D01*
X177630000Y-396566000D01*
X177660000Y-396566000D01*
X177690000Y-396567500D01*
G37*
G36*
X177690000Y-400847500D02*
G01*
X177719500Y-400850500D01*
X177749500Y-400854500D01*
X177778500Y-400860500D01*
X177807500Y-400868000D01*
X177836000Y-400877000D01*
X177864500Y-400887000D01*
X177892000Y-400898500D01*
X177919000Y-400911500D01*
X177945000Y-400926000D01*
X177970500Y-400941500D01*
X177995500Y-400958500D01*
X178019000Y-400976500D01*
X178042000Y-400996000D01*
X178064000Y-401016000D01*
X178085000Y-401037500D01*
X178105000Y-401060000D01*
X178123500Y-401083500D01*
X178141000Y-401107500D01*
X178157000Y-401133000D01*
X178172000Y-401158500D01*
X178185500Y-401185500D01*
X178198000Y-401212500D01*
X178209000Y-401240500D01*
X178218500Y-401269000D01*
X178226500Y-401297500D01*
X178233000Y-401326500D01*
X178238500Y-401356000D01*
X178242000Y-401386000D01*
X178244500Y-401415500D01*
X178245000Y-401445500D01*
X178245000Y-402045500D01*
X178244500Y-402075500D01*
X178242000Y-402105500D01*
X178238500Y-402135000D01*
X178233000Y-402164500D01*
X178226500Y-402193500D01*
X178218500Y-402222500D01*
X178209000Y-402251000D01*
X178198000Y-402278500D01*
X178185500Y-402306000D01*
X178172000Y-402332500D01*
X178157000Y-402358500D01*
X178141000Y-402383500D01*
X178123500Y-402408000D01*
X178105000Y-402431500D01*
X178085000Y-402453500D01*
X178064000Y-402475000D01*
X178042000Y-402495500D01*
X178019000Y-402514500D01*
X177995500Y-402533000D01*
X177970500Y-402549500D01*
X177945000Y-402565000D01*
X177919000Y-402579500D01*
X177892000Y-402592500D01*
X177864500Y-402604000D01*
X177836000Y-402614500D01*
X177807500Y-402623000D01*
X177778500Y-402630500D01*
X177749500Y-402636500D01*
X177719500Y-402641000D01*
X177690000Y-402644000D01*
X177660000Y-402645500D01*
X177630000Y-402645500D01*
X177600500Y-402644000D01*
X177570500Y-402641000D01*
X177541000Y-402636500D01*
X177511500Y-402630500D01*
X177482500Y-402623000D01*
X177454000Y-402614500D01*
X177426000Y-402604000D01*
X177398500Y-402592500D01*
X177371500Y-402579500D01*
X177345000Y-402565000D01*
X177319500Y-402549500D01*
X177295000Y-402533000D01*
X177271000Y-402514500D01*
X177248000Y-402495500D01*
X177226000Y-402475000D01*
X177205500Y-402453500D01*
X177185500Y-402431500D01*
X177167000Y-402408000D01*
X177149500Y-402383500D01*
X177133000Y-402358500D01*
X177118000Y-402332500D01*
X177104500Y-402306000D01*
X177092000Y-402278500D01*
X177081500Y-402251000D01*
X177072000Y-402222500D01*
X177063500Y-402193500D01*
X177057000Y-402164500D01*
X177052000Y-402135000D01*
X177048000Y-402105500D01*
X177046000Y-402075500D01*
X177045000Y-402045500D01*
X177045000Y-401445500D01*
X177046000Y-401415500D01*
X177048000Y-401386000D01*
X177052000Y-401356000D01*
X177057000Y-401326500D01*
X177063500Y-401297500D01*
X177072000Y-401269000D01*
X177081500Y-401240500D01*
X177092000Y-401212500D01*
X177104500Y-401185500D01*
X177118000Y-401158500D01*
X177133000Y-401133000D01*
X177149500Y-401107500D01*
X177167000Y-401083500D01*
X177185500Y-401060000D01*
X177205500Y-401037500D01*
X177226000Y-401016000D01*
X177248000Y-400996000D01*
X177271000Y-400976500D01*
X177295000Y-400958500D01*
X177319500Y-400941500D01*
X177345000Y-400926000D01*
X177371500Y-400911500D01*
X177398500Y-400898500D01*
X177426000Y-400887000D01*
X177454000Y-400877000D01*
X177482500Y-400868000D01*
X177511500Y-400860500D01*
X177541000Y-400854500D01*
X177570500Y-400850500D01*
X177600500Y-400847500D01*
X177630000Y-400846000D01*
X177660000Y-400846000D01*
X177690000Y-400847500D01*
G37*
%TD*%
D11*
%TO.C,C127*%
X205385000Y-379160000D03*
X208335000Y-379160000D03*
%TD*%
D12*
%TO.C,C128*%
X160330000Y-382125000D03*
X160330000Y-379175000D03*
%TD*%
D11*
%TO.C,C126*%
X208375000Y-381590000D03*
X205425000Y-381590000D03*
%TD*%
%TO.C,C125*%
X208375000Y-383980000D03*
X205425000Y-383980000D03*
%TD*%
%TO.C,C124*%
X208415000Y-386400000D03*
X205465000Y-386400000D03*
%TD*%
%TO.C,C123*%
X208415000Y-388950000D03*
X205465000Y-388950000D03*
%TD*%
D12*
%TO.C,C122*%
X167450000Y-38355000D03*
X167450000Y-35405000D03*
%TD*%
%TO.C,C121*%
X170000000Y-38335000D03*
X170000000Y-35385000D03*
%TD*%
%TO.C,C120*%
X172510000Y-38355000D03*
X172510000Y-35405000D03*
%TD*%
%TO.C,C119*%
X174910000Y-38355000D03*
X174910000Y-35405000D03*
%TD*%
%TO.C,C118*%
X177340000Y-38355000D03*
X177340000Y-35405000D03*
%TD*%
D13*
%TO.C,D12*%
X2450000Y-398400000D03*
X2450000Y-401600000D03*
X-2450000Y-401600000D03*
X-2450000Y-398400000D03*
%TD*%
D14*
%TO.C,C12*%
X5670000Y-399815000D03*
X5670000Y-398265000D03*
%TD*%
D13*
%TO.C,D99*%
X309550000Y-151900000D03*
X309550000Y-155100000D03*
X314450000Y-155100000D03*
X314450000Y-151900000D03*
%TD*%
D15*
%TO.C,C91*%
X283225000Y-312100000D03*
X284775000Y-312100000D03*
%TD*%
D13*
%TO.C,D101*%
X309550000Y-89900000D03*
X309550000Y-93100000D03*
X314450000Y-93100000D03*
X314450000Y-89900000D03*
%TD*%
D15*
%TO.C,C98*%
X311225000Y-188100000D03*
X312775000Y-188100000D03*
%TD*%
%TO.C,C11*%
X59225000Y-343100000D03*
X60775000Y-343100000D03*
%TD*%
D16*
%TO.C,R12*%
X139840000Y-383170000D03*
X139840000Y-384190000D03*
%TD*%
D15*
%TO.C,C65*%
X227225000Y-126100000D03*
X228775000Y-126100000D03*
%TD*%
D13*
%TO.C,D19*%
X85550000Y-151900000D03*
X85550000Y-155100000D03*
X90450000Y-155100000D03*
X90450000Y-151900000D03*
%TD*%
%TO.C,D86*%
X281550000Y-151900000D03*
X281550000Y-155100000D03*
X286450000Y-155100000D03*
X286450000Y-151900000D03*
%TD*%
D17*
%TO.C,R6*%
X123630000Y-374180000D03*
X123630000Y-373160000D03*
%TD*%
D13*
%TO.C,D11*%
X57550000Y-337900000D03*
X57550000Y-341100000D03*
X62450000Y-341100000D03*
X62450000Y-337900000D03*
%TD*%
D15*
%TO.C,C105*%
X339225000Y-95100000D03*
X340775000Y-95100000D03*
%TD*%
D13*
%TO.C,D104*%
X337550000Y-58900000D03*
X337550000Y-62100000D03*
X342450000Y-62100000D03*
X342450000Y-58900000D03*
%TD*%
D15*
%TO.C,C103*%
X399225000Y-3600000D03*
X400775000Y-3600000D03*
%TD*%
D13*
%TO.C,D22*%
X85550000Y-58900000D03*
X85550000Y-62100000D03*
X90450000Y-62100000D03*
X90450000Y-58900000D03*
%TD*%
%TO.C,D111*%
X337550000Y-275900000D03*
X337550000Y-279100000D03*
X342450000Y-279100000D03*
X342450000Y-275900000D03*
%TD*%
%TO.C,D62*%
X197550000Y-58900000D03*
X197550000Y-62100000D03*
X202450000Y-62100000D03*
X202450000Y-58900000D03*
%TD*%
D15*
%TO.C,C24*%
X115225000Y-95100000D03*
X116775000Y-95100000D03*
%TD*%
%TO.C,C53*%
X199225000Y-343100000D03*
X200775000Y-343100000D03*
%TD*%
D13*
%TO.C,D80*%
X253550000Y-120900000D03*
X253550000Y-124100000D03*
X258450000Y-124100000D03*
X258450000Y-120900000D03*
%TD*%
D15*
%TO.C,C4*%
X59225000Y-126100000D03*
X60775000Y-126100000D03*
%TD*%
D13*
%TO.C,D23*%
X113550000Y-58900000D03*
X113550000Y-62100000D03*
X118450000Y-62100000D03*
X118450000Y-58900000D03*
%TD*%
%TO.C,D90*%
X281550000Y-275900000D03*
X281550000Y-279100000D03*
X286450000Y-279100000D03*
X286450000Y-275900000D03*
%TD*%
%TO.C,D76*%
X253550000Y-244900000D03*
X253550000Y-248100000D03*
X258450000Y-248100000D03*
X258450000Y-244900000D03*
%TD*%
D15*
%TO.C,C90*%
X283225000Y-281100000D03*
X284775000Y-281100000D03*
%TD*%
D13*
%TO.C,D97*%
X309550000Y-213900000D03*
X309550000Y-217100000D03*
X314450000Y-217100000D03*
X314450000Y-213900000D03*
%TD*%
D15*
%TO.C,C55*%
X199225000Y-281100000D03*
X200775000Y-281100000D03*
%TD*%
%TO.C,C108*%
X339225000Y-188100000D03*
X340775000Y-188100000D03*
%TD*%
%TO.C,C2*%
X59225000Y-64099999D03*
X60775000Y-64099999D03*
%TD*%
%TO.C,C76*%
X255225000Y-250100000D03*
X256775000Y-250100000D03*
%TD*%
%TO.C,C93*%
X311225000Y-343100000D03*
X312775000Y-343100000D03*
%TD*%
D13*
%TO.C,D39*%
X141550000Y-151900000D03*
X141550000Y-155100000D03*
X146450000Y-155100000D03*
X146450000Y-151900000D03*
%TD*%
%TO.C,D25*%
X113550000Y-120900000D03*
X113550000Y-124100000D03*
X118450000Y-124100000D03*
X118450000Y-120900000D03*
%TD*%
D15*
%TO.C,C82*%
X255225000Y-64099999D03*
X256775000Y-64099999D03*
%TD*%
%TO.C,C45*%
X171225000Y-126100000D03*
X172775000Y-126100000D03*
%TD*%
D13*
%TO.C,D4*%
X57550000Y-120900000D03*
X57550000Y-124100000D03*
X62450000Y-124100000D03*
X62450000Y-120900000D03*
%TD*%
D15*
%TO.C,C23*%
X115225000Y-64099999D03*
X116775000Y-64099999D03*
%TD*%
D13*
%TO.C,D112*%
X337550000Y-306900000D03*
X337550000Y-310100000D03*
X342450000Y-310100000D03*
X342450000Y-306900000D03*
%TD*%
%TO.C,D82*%
X253550000Y-58900000D03*
X253550000Y-62100000D03*
X258450000Y-62100000D03*
X258450000Y-58900000D03*
%TD*%
%TO.C,D92*%
X281550000Y-337900000D03*
X281550000Y-341100000D03*
X286450000Y-341100000D03*
X286450000Y-337900000D03*
%TD*%
D15*
%TO.C,C50*%
X171225000Y-281100000D03*
X172775000Y-281100000D03*
%TD*%
D17*
%TO.C,R7*%
X125560000Y-374120000D03*
X125560000Y-373100000D03*
%TD*%
D18*
%TO.C,C129*%
X148810000Y-386730000D03*
X148810000Y-387690000D03*
%TD*%
D15*
%TO.C,C75*%
X255225000Y-281100000D03*
X256775000Y-281100000D03*
%TD*%
%TO.C,C68*%
X227225000Y-219100000D03*
X228775000Y-219100000D03*
%TD*%
D13*
%TO.C,D73*%
X253550000Y-337900000D03*
X253550000Y-341100000D03*
X258450000Y-341100000D03*
X258450000Y-337900000D03*
%TD*%
%TO.C,D24*%
X113550000Y-89900000D03*
X113550000Y-93100000D03*
X118450000Y-93100000D03*
X118450000Y-89900000D03*
%TD*%
%TO.C,D106*%
X337550000Y-120900000D03*
X337550000Y-124100000D03*
X342450000Y-124100000D03*
X342450000Y-120900000D03*
%TD*%
D19*
%TO.C,J3*%
X169970000Y-396797500D03*
X170770000Y-396797500D03*
X172070000Y-396797500D03*
X173070000Y-396797500D03*
X173570000Y-396797500D03*
X174569500Y-396797500D03*
X175870000Y-396797500D03*
X176670000Y-396797500D03*
X176370000Y-396797500D03*
X175570000Y-396797500D03*
X175070000Y-396797500D03*
X174070000Y-396797500D03*
X172570000Y-396797500D03*
X171570000Y-396797500D03*
X171070000Y-396797500D03*
X170270000Y-396797500D03*
%TD*%
D13*
%TO.C,D33*%
X141550000Y-337900000D03*
X141550000Y-341100000D03*
X146450000Y-341100000D03*
X146450000Y-337900000D03*
%TD*%
D15*
%TO.C,C72*%
X227225000Y-343100000D03*
X228775000Y-343100000D03*
%TD*%
%TO.C,C102*%
X311225000Y-64099999D03*
X312775000Y-64099999D03*
%TD*%
D20*
%TO.C,R9*%
X129250000Y-394250000D03*
X128230000Y-394250000D03*
%TD*%
D13*
%TO.C,D16*%
X85550000Y-244900000D03*
X85550000Y-248100000D03*
X90450000Y-248100000D03*
X90450000Y-244900000D03*
%TD*%
D15*
%TO.C,C37*%
X143225000Y-219100000D03*
X144775000Y-219100000D03*
%TD*%
D21*
%TO.C,C131*%
X132880000Y-384580000D03*
X132880000Y-383620000D03*
%TD*%
D15*
%TO.C,C104*%
X339225000Y-64099999D03*
X340775000Y-64099999D03*
%TD*%
D13*
%TO.C,D49*%
X169550000Y-244900000D03*
X169550000Y-248100000D03*
X174450000Y-248100000D03*
X174450000Y-244900000D03*
%TD*%
%TO.C,D2*%
X57550000Y-58900000D03*
X57550000Y-62100000D03*
X62450000Y-62100000D03*
X62450000Y-58900000D03*
%TD*%
D15*
%TO.C,C83*%
X283225000Y-64099999D03*
X284775000Y-64099999D03*
%TD*%
%TO.C,C92*%
X283225000Y-343100000D03*
X284775000Y-343100000D03*
%TD*%
D13*
%TO.C,D87*%
X281550000Y-182900000D03*
X281550000Y-186100000D03*
X286450000Y-186100000D03*
X286450000Y-182900000D03*
%TD*%
D15*
%TO.C,C10*%
X59225000Y-312100000D03*
X60775000Y-312100000D03*
%TD*%
D13*
%TO.C,D42*%
X141550000Y-58900000D03*
X141550000Y-62100000D03*
X146450000Y-62100000D03*
X146450000Y-58900000D03*
%TD*%
D15*
%TO.C,C71*%
X227225000Y-312100000D03*
X228775000Y-312100000D03*
%TD*%
%TO.C,C46*%
X171225000Y-157100000D03*
X172775000Y-157100000D03*
%TD*%
D13*
%TO.C,D60*%
X197550000Y-120900000D03*
X197550000Y-124100000D03*
X202450000Y-124100000D03*
X202450000Y-120900000D03*
%TD*%
%TO.C,D32*%
X113550000Y-337900000D03*
X113550000Y-341100000D03*
X118450000Y-341100000D03*
X118450000Y-337900000D03*
%TD*%
D15*
%TO.C,C78*%
X255225000Y-188100000D03*
X256775000Y-188100000D03*
%TD*%
%TO.C,C5*%
X59225000Y-157100000D03*
X60775000Y-157100000D03*
%TD*%
D13*
%TO.C,D17*%
X85550000Y-213900000D03*
X85550000Y-217100000D03*
X90450000Y-217100000D03*
X90450000Y-213900000D03*
%TD*%
D15*
%TO.C,C88*%
X283225000Y-219100000D03*
X284775000Y-219100000D03*
%TD*%
%TO.C,C111*%
X339225000Y-281100000D03*
X340775000Y-281100000D03*
%TD*%
D13*
%TO.C,D79*%
X253550000Y-151900000D03*
X253550000Y-155100000D03*
X258450000Y-155100000D03*
X258450000Y-151900000D03*
%TD*%
%TO.C,D14*%
X85550000Y-306900000D03*
X85550000Y-310100000D03*
X90450000Y-310100000D03*
X90450000Y-306900000D03*
%TD*%
D15*
%TO.C,C42*%
X143225000Y-64099999D03*
X144775000Y-64099999D03*
%TD*%
%TO.C,C112*%
X339225000Y-312100000D03*
X340775000Y-312100000D03*
%TD*%
%TO.C,C28*%
X115225000Y-219100000D03*
X116775000Y-219100000D03*
%TD*%
%TO.C,C47*%
X171225000Y-188100000D03*
X172775000Y-188100000D03*
%TD*%
D13*
%TO.C,D63*%
X225550000Y-58900000D03*
X225550000Y-62100000D03*
X230450000Y-62100000D03*
X230450000Y-58900000D03*
%TD*%
D15*
%TO.C,C6*%
X59225000Y-188100000D03*
X60775000Y-188100000D03*
%TD*%
D13*
%TO.C,D85*%
X281550000Y-120900000D03*
X281550000Y-124100000D03*
X286450000Y-124100000D03*
X286450000Y-120900000D03*
%TD*%
%TO.C,D89*%
X281550000Y-244900000D03*
X281550000Y-248100000D03*
X286450000Y-248100000D03*
X286450000Y-244900000D03*
%TD*%
D20*
%TO.C,R3*%
X121470000Y-393690000D03*
X120450000Y-393690000D03*
%TD*%
D13*
%TO.C,D66*%
X225550000Y-151900000D03*
X225550000Y-155100000D03*
X230450000Y-155100000D03*
X230450000Y-151900000D03*
%TD*%
D15*
%TO.C,C48*%
X171225000Y-219100000D03*
X172775000Y-219100000D03*
%TD*%
D22*
%TO.C,U6*%
X160467500Y-375097500D03*
X161417500Y-375097500D03*
X162367500Y-375097500D03*
X162367500Y-372822500D03*
X161417500Y-372822500D03*
X160467500Y-372822500D03*
%TD*%
D15*
%TO.C,C31*%
X115225000Y-312100000D03*
X116775000Y-312100000D03*
%TD*%
%TO.C,C7*%
X59225000Y-219100000D03*
X60775000Y-219100000D03*
%TD*%
D13*
%TO.C,D54*%
X197550000Y-306900000D03*
X197550000Y-310100000D03*
X202450000Y-310100000D03*
X202450000Y-306900000D03*
%TD*%
%TO.C,D38*%
X141550000Y-182900000D03*
X141550000Y-186100000D03*
X146450000Y-186100000D03*
X146450000Y-182900000D03*
%TD*%
%TO.C,D107*%
X337550000Y-151900000D03*
X337550000Y-155100000D03*
X342450000Y-155100000D03*
X342450000Y-151900000D03*
%TD*%
D15*
%TO.C,C101*%
X311225000Y-95100000D03*
X312775000Y-95100000D03*
%TD*%
D13*
%TO.C,D52*%
X169550000Y-337900000D03*
X169550000Y-341100000D03*
X174450000Y-341100000D03*
X174450000Y-337900000D03*
%TD*%
D15*
%TO.C,C34*%
X143225000Y-312100000D03*
X144775000Y-312100000D03*
%TD*%
%TO.C,C32*%
X115225000Y-343100000D03*
X116775000Y-343100000D03*
%TD*%
D13*
%TO.C,D75*%
X253550000Y-275900000D03*
X253550000Y-279100000D03*
X258450000Y-279100000D03*
X258450000Y-275900000D03*
%TD*%
%TO.C,D30*%
X113550000Y-275900000D03*
X113550000Y-279100000D03*
X118450000Y-279100000D03*
X118450000Y-275900000D03*
%TD*%
D15*
%TO.C,C3*%
X59225000Y-95100000D03*
X60775000Y-95100000D03*
%TD*%
D13*
%TO.C,D37*%
X141550000Y-213900000D03*
X141550000Y-217100000D03*
X146450000Y-217100000D03*
X146450000Y-213900000D03*
%TD*%
D15*
%TO.C,C89*%
X283225000Y-250100000D03*
X284775000Y-250100000D03*
%TD*%
D13*
%TO.C,D13*%
X85550000Y-337900000D03*
X85550000Y-341100000D03*
X90450000Y-341100000D03*
X90450000Y-337900000D03*
%TD*%
D23*
%TO.C,C117*%
X96735000Y-383375000D03*
X95775000Y-383375000D03*
%TD*%
D13*
%TO.C,D98*%
X309550000Y-182900000D03*
X309550000Y-186100000D03*
X314450000Y-186100000D03*
X314450000Y-182900000D03*
%TD*%
D17*
%TO.C,R4*%
X127550000Y-374180000D03*
X127550000Y-373160000D03*
%TD*%
D24*
%TO.C,U4*%
X146985000Y-389205000D03*
X146985000Y-387935000D03*
X146985000Y-386665000D03*
X146985000Y-385395000D03*
X146985000Y-384125000D03*
X146985000Y-382855000D03*
X146985000Y-381585000D03*
X146985000Y-380315000D03*
X142035000Y-380315000D03*
X142035000Y-381585000D03*
X142035000Y-382855000D03*
X142035000Y-384125000D03*
X142035000Y-385395000D03*
X142035000Y-386665000D03*
X142035000Y-387935000D03*
X142035000Y-389205000D03*
%TD*%
D13*
%TO.C,D103*%
X397550000Y1600000D03*
X397550000Y-1600000D03*
X402450000Y-1600000D03*
X402450000Y1600000D03*
%TD*%
D15*
%TO.C,C27*%
X115225000Y-188100000D03*
X116775000Y-188100000D03*
%TD*%
%TO.C,C60*%
X199225000Y-126100000D03*
X200775000Y-126100000D03*
%TD*%
%TO.C,C21*%
X87225000Y-95100000D03*
X88775000Y-95100000D03*
%TD*%
%TO.C,C49*%
X171225000Y-250100000D03*
X172775000Y-250100000D03*
%TD*%
D25*
%TO.C,R8*%
X125445000Y-394180000D03*
X123795000Y-394180000D03*
%TD*%
D13*
%TO.C,D102*%
X309550000Y-58900000D03*
X309550000Y-62100000D03*
X314450000Y-62100000D03*
X314450000Y-58900000D03*
%TD*%
D21*
%TO.C,C115*%
X135400000Y-384630000D03*
X135400000Y-383670000D03*
%TD*%
D15*
%TO.C,C44*%
X171225000Y-95100000D03*
X172775000Y-95100000D03*
%TD*%
D13*
%TO.C,D71*%
X225550000Y-306900000D03*
X225550000Y-310100000D03*
X230450000Y-310100000D03*
X230450000Y-306900000D03*
%TD*%
%TO.C,D27*%
X113550000Y-182900000D03*
X113550000Y-186100000D03*
X118450000Y-186100000D03*
X118450000Y-182900000D03*
%TD*%
%TO.C,D50*%
X169550000Y-275900000D03*
X169550000Y-279100000D03*
X174450000Y-279100000D03*
X174450000Y-275900000D03*
%TD*%
D26*
%TO.C,C116*%
X153580000Y-378740000D03*
X154540000Y-378740000D03*
%TD*%
D15*
%TO.C,C26*%
X115225000Y-157100000D03*
X116775000Y-157100000D03*
%TD*%
D13*
%TO.C,D61*%
X197550000Y-89900000D03*
X197550000Y-93100000D03*
X202450000Y-93100000D03*
X202450000Y-89900000D03*
%TD*%
%TO.C,D81*%
X253550000Y-89900000D03*
X253550000Y-93100000D03*
X258450000Y-93100000D03*
X258450000Y-89900000D03*
%TD*%
D15*
%TO.C,C106*%
X339225000Y-126100000D03*
X340775000Y-126100000D03*
%TD*%
%TO.C,C84*%
X283225000Y-95100000D03*
X284775000Y-95100000D03*
%TD*%
D13*
%TO.C,D64*%
X225550000Y-89900000D03*
X225550000Y-93100000D03*
X230450000Y-93100000D03*
X230450000Y-89900000D03*
%TD*%
D15*
%TO.C,C57*%
X199225000Y-219100000D03*
X200775000Y-219100000D03*
%TD*%
%TO.C,C58*%
X199225000Y-188100000D03*
X200775000Y-188100000D03*
%TD*%
D27*
%TO.C,Q1*%
X144430000Y-378070000D03*
X145080000Y-378070000D03*
X145730000Y-378070000D03*
X145730000Y-376170000D03*
X145080000Y-376170000D03*
X144430000Y-376170000D03*
%TD*%
D13*
%TO.C,D100*%
X309550000Y-120900000D03*
X309550000Y-124100000D03*
X314450000Y-124100000D03*
X314450000Y-120900000D03*
%TD*%
%TO.C,D58*%
X197550000Y-182900000D03*
X197550000Y-186100000D03*
X202450000Y-186100000D03*
X202450000Y-182900000D03*
%TD*%
D15*
%TO.C,C64*%
X227225000Y-95100000D03*
X228775000Y-95100000D03*
%TD*%
%TO.C,C59*%
X199225000Y-157100000D03*
X200775000Y-157100000D03*
%TD*%
%TO.C,C110*%
X339225000Y-250100000D03*
X340775000Y-250100000D03*
%TD*%
D13*
%TO.C,D53*%
X197550000Y-337900000D03*
X197550000Y-341100000D03*
X202450000Y-341100000D03*
X202450000Y-337900000D03*
%TD*%
%TO.C,D77*%
X253550000Y-213900000D03*
X253550000Y-217100000D03*
X258450000Y-217100000D03*
X258450000Y-213900000D03*
%TD*%
%TO.C,D29*%
X113550000Y-244900000D03*
X113550000Y-248100000D03*
X118450000Y-248100000D03*
X118450000Y-244900000D03*
%TD*%
%TO.C,D55*%
X197550000Y-275900000D03*
X197550000Y-279100000D03*
X202450000Y-279100000D03*
X202450000Y-275900000D03*
%TD*%
%TO.C,D88*%
X281550000Y-213900000D03*
X281550000Y-217100000D03*
X286450000Y-217100000D03*
X286450000Y-213900000D03*
%TD*%
%TO.C,D56*%
X197550000Y-244900000D03*
X197550000Y-248100000D03*
X202450000Y-248100000D03*
X202450000Y-244900000D03*
%TD*%
%TO.C,D96*%
X309550000Y-244900000D03*
X309550000Y-248100000D03*
X314450000Y-248100000D03*
X314450000Y-244900000D03*
%TD*%
%TO.C,D43*%
X169550000Y-58900000D03*
X169550000Y-62100000D03*
X174450000Y-62100000D03*
X174450000Y-58900000D03*
%TD*%
D15*
%TO.C,C85*%
X283225000Y-126100000D03*
X284775000Y-126100000D03*
%TD*%
%TO.C,C20*%
X87225000Y-126100000D03*
X88775000Y-126100000D03*
%TD*%
%TO.C,C87*%
X283225000Y-188100000D03*
X284775000Y-188100000D03*
%TD*%
%TO.C,C66*%
X227225000Y-157100000D03*
X228775000Y-157100000D03*
%TD*%
%TO.C,C25*%
X115225000Y-126100000D03*
X116775000Y-126100000D03*
%TD*%
%TO.C,C81*%
X255225000Y-95100000D03*
X256775000Y-95100000D03*
%TD*%
D13*
%TO.C,D45*%
X169550000Y-120900000D03*
X169550000Y-124100000D03*
X174450000Y-124100000D03*
X174450000Y-120900000D03*
%TD*%
%TO.C,D59*%
X197550000Y-151900000D03*
X197550000Y-155100000D03*
X202450000Y-155100000D03*
X202450000Y-151900000D03*
%TD*%
%TO.C,D40*%
X141550000Y-120900000D03*
X141550000Y-124100000D03*
X146450000Y-124100000D03*
X146450000Y-120900000D03*
%TD*%
%TO.C,D26*%
X113550000Y-151900000D03*
X113550000Y-155100000D03*
X118450000Y-155100000D03*
X118450000Y-151900000D03*
%TD*%
D15*
%TO.C,C96*%
X311225000Y-250100000D03*
X312775000Y-250100000D03*
%TD*%
%TO.C,C107*%
X339225000Y-157100000D03*
X340775000Y-157100000D03*
%TD*%
%TO.C,C63*%
X227225000Y-64099999D03*
X228775000Y-64099999D03*
%TD*%
%TO.C,C38*%
X143225000Y-188100000D03*
X144775000Y-188100000D03*
%TD*%
D13*
%TO.C,D94*%
X309550000Y-306900000D03*
X309550000Y-310100000D03*
X314450000Y-310100000D03*
X314450000Y-306900000D03*
%TD*%
D15*
%TO.C,C15*%
X87225000Y-281100000D03*
X88775000Y-281100000D03*
%TD*%
D28*
%TO.C,U2*%
X96585000Y-381855000D03*
X96585000Y-381205000D03*
X96585000Y-380555000D03*
X94685000Y-380555000D03*
X94685000Y-381855000D03*
%TD*%
D15*
%TO.C,C97*%
X311225000Y-219100000D03*
X312775000Y-219100000D03*
%TD*%
D13*
%TO.C,D47*%
X169550000Y-182900000D03*
X169550000Y-186100000D03*
X174450000Y-186100000D03*
X174450000Y-182900000D03*
%TD*%
D20*
%TO.C,R16*%
X160130000Y-377400000D03*
X159110000Y-377400000D03*
%TD*%
D13*
%TO.C,D1*%
X-2450000Y1600000D03*
X-2450000Y-1600000D03*
X2450000Y-1600000D03*
X2450000Y1600000D03*
%TD*%
D15*
%TO.C,C41*%
X143225000Y-95100000D03*
X144775000Y-95100000D03*
%TD*%
D13*
%TO.C,D7*%
X57550000Y-213900000D03*
X57550000Y-217100000D03*
X62450000Y-217100000D03*
X62450000Y-213900000D03*
%TD*%
%TO.C,D70*%
X225550000Y-275900000D03*
X225550000Y-279100000D03*
X230450000Y-279100000D03*
X230450000Y-275900000D03*
%TD*%
D15*
%TO.C,C43*%
X171225000Y-64099999D03*
X172775000Y-64099999D03*
%TD*%
%TO.C,C9*%
X59225000Y-281100000D03*
X60775000Y-281100000D03*
%TD*%
%TO.C,C67*%
X227225000Y-188100000D03*
X228775000Y-188100000D03*
%TD*%
D13*
%TO.C,D78*%
X253550000Y-182900000D03*
X253550000Y-186100000D03*
X258450000Y-186100000D03*
X258450000Y-182900000D03*
%TD*%
%TO.C,D20*%
X85550000Y-120900000D03*
X85550000Y-124100000D03*
X90450000Y-124100000D03*
X90450000Y-120900000D03*
%TD*%
D15*
%TO.C,C80*%
X255225000Y-126100000D03*
X256775000Y-126100000D03*
%TD*%
%TO.C,C74*%
X255225000Y-312100000D03*
X256775000Y-312100000D03*
%TD*%
%TO.C,C17*%
X87225000Y-219100000D03*
X88775000Y-219100000D03*
%TD*%
D13*
%TO.C,D83*%
X281550000Y-58900000D03*
X281550000Y-62100000D03*
X286450000Y-62100000D03*
X286450000Y-58900000D03*
%TD*%
D15*
%TO.C,C29*%
X115225000Y-250100000D03*
X116775000Y-250100000D03*
%TD*%
%TO.C,C14*%
X87225000Y-312100000D03*
X88775000Y-312100000D03*
%TD*%
D13*
%TO.C,D21*%
X85550000Y-89900000D03*
X85550000Y-93100000D03*
X90450000Y-93100000D03*
X90450000Y-89900000D03*
%TD*%
%TO.C,D46*%
X169550000Y-151900000D03*
X169550000Y-155100000D03*
X174450000Y-155100000D03*
X174450000Y-151900000D03*
%TD*%
D15*
%TO.C,C70*%
X227225000Y-281100000D03*
X228775000Y-281100000D03*
%TD*%
%TO.C,C35*%
X143225000Y-281100000D03*
X144775000Y-281100000D03*
%TD*%
D13*
%TO.C,D105*%
X337550000Y-89900000D03*
X337550000Y-93100000D03*
X342450000Y-93100000D03*
X342450000Y-89900000D03*
%TD*%
%TO.C,D110*%
X337550000Y-244900000D03*
X337550000Y-248100000D03*
X342450000Y-248100000D03*
X342450000Y-244900000D03*
%TD*%
%TO.C,D109*%
X337550000Y-213900000D03*
X337550000Y-217100000D03*
X342450000Y-217100000D03*
X342450000Y-213900000D03*
%TD*%
%TO.C,D31*%
X113550000Y-306900000D03*
X113550000Y-310100000D03*
X118450000Y-310100000D03*
X118450000Y-306900000D03*
%TD*%
D15*
%TO.C,C62*%
X199225000Y-64099999D03*
X200775000Y-64099999D03*
%TD*%
D13*
%TO.C,D93*%
X309550000Y-337900000D03*
X309550000Y-341100000D03*
X314450000Y-341100000D03*
X314450000Y-337900000D03*
%TD*%
D15*
%TO.C,C13*%
X87225000Y-343100000D03*
X88775000Y-343100000D03*
%TD*%
%TO.C,C40*%
X143225000Y-126100000D03*
X144775000Y-126100000D03*
%TD*%
D13*
%TO.C,D41*%
X141550000Y-89900000D03*
X141550000Y-93100000D03*
X146450000Y-93100000D03*
X146450000Y-89900000D03*
%TD*%
%TO.C,D6*%
X57550000Y-182900000D03*
X57550000Y-186100000D03*
X62450000Y-186100000D03*
X62450000Y-182900000D03*
%TD*%
D15*
%TO.C,C52*%
X171225000Y-343100000D03*
X172775000Y-343100000D03*
%TD*%
D13*
%TO.C,D34*%
X141550000Y-306900000D03*
X141550000Y-310100000D03*
X146450000Y-310100000D03*
X146450000Y-306900000D03*
%TD*%
D15*
%TO.C,C99*%
X311225000Y-157100000D03*
X312775000Y-157100000D03*
%TD*%
%TO.C,C30*%
X115225000Y-281100000D03*
X116775000Y-281100000D03*
%TD*%
%TO.C,C100*%
X311225000Y-126100000D03*
X312775000Y-126100000D03*
%TD*%
D13*
%TO.C,D113*%
X337550000Y-337900000D03*
X337550000Y-341100000D03*
X342450000Y-341100000D03*
X342450000Y-337900000D03*
%TD*%
D29*
%TO.C,U3*%
X156622500Y-382170000D03*
X154322500Y-382170000D03*
X152022500Y-382170000D03*
D30*
X154322500Y-388470000D03*
%TD*%
D13*
%TO.C,D5*%
X57550000Y-151900000D03*
X57550000Y-155100000D03*
X62450000Y-155100000D03*
X62450000Y-151900000D03*
%TD*%
%TO.C,D9*%
X57550000Y-275900000D03*
X57550000Y-279100000D03*
X62450000Y-279100000D03*
X62450000Y-275900000D03*
%TD*%
D31*
%TO.C,R1*%
X-2230000Y-8912500D03*
X-2230000Y-7087500D03*
%TD*%
D13*
%TO.C,D44*%
X169550000Y-89900000D03*
X169550000Y-93100000D03*
X174450000Y-93100000D03*
X174450000Y-89900000D03*
%TD*%
D15*
%TO.C,C8*%
X59225000Y-250100000D03*
X60775000Y-250100000D03*
%TD*%
%TO.C,C79*%
X255225000Y-157100000D03*
X256775000Y-157100000D03*
%TD*%
%TO.C,C56*%
X199225000Y-250100000D03*
X200775000Y-250100000D03*
%TD*%
D13*
%TO.C,D15*%
X85550000Y-275900000D03*
X85550000Y-279100000D03*
X90450000Y-279100000D03*
X90450000Y-275900000D03*
%TD*%
%TO.C,D74*%
X253550000Y-306900000D03*
X253550000Y-310100000D03*
X258450000Y-310100000D03*
X258450000Y-306900000D03*
%TD*%
%TO.C,D67*%
X225550000Y-182900000D03*
X225550000Y-186100000D03*
X230450000Y-186100000D03*
X230450000Y-182900000D03*
%TD*%
D32*
%TO.C,D115*%
X173750000Y-386942500D03*
X173750000Y-390942500D03*
%TD*%
D13*
%TO.C,D108*%
X337550000Y-182900000D03*
X337550000Y-186100000D03*
X342450000Y-186100000D03*
X342450000Y-182900000D03*
%TD*%
D15*
%TO.C,C39*%
X143225000Y-157100000D03*
X144775000Y-157100000D03*
%TD*%
D13*
%TO.C,D10*%
X57550000Y-306900000D03*
X57550000Y-310100000D03*
X62450000Y-310100000D03*
X62450000Y-306900000D03*
%TD*%
D15*
%TO.C,C51*%
X171225000Y-312100000D03*
X172775000Y-312100000D03*
%TD*%
D13*
%TO.C,D95*%
X309550000Y-275900000D03*
X309550000Y-279100000D03*
X314450000Y-279100000D03*
X314450000Y-275900000D03*
%TD*%
%TO.C,D72*%
X225550000Y-337900000D03*
X225550000Y-341100000D03*
X230450000Y-341100000D03*
X230450000Y-337900000D03*
%TD*%
D17*
%TO.C,R11*%
X115520000Y-394630000D03*
X115520000Y-393610000D03*
%TD*%
D13*
%TO.C,D69*%
X225550000Y-244900000D03*
X225550000Y-248100000D03*
X230450000Y-248100000D03*
X230450000Y-244900000D03*
%TD*%
D15*
%TO.C,C19*%
X87225000Y-157100000D03*
X88775000Y-157100000D03*
%TD*%
%TO.C,C36*%
X143225000Y-250100000D03*
X144775000Y-250100000D03*
%TD*%
D13*
%TO.C,D68*%
X225550000Y-213900000D03*
X225550000Y-217100000D03*
X230450000Y-217100000D03*
X230450000Y-213900000D03*
%TD*%
D15*
%TO.C,C22*%
X87225000Y-64099999D03*
X88775000Y-64099999D03*
%TD*%
D14*
%TO.C,C114*%
X392620000Y-400605000D03*
X392620000Y-402155000D03*
%TD*%
D21*
%TO.C,C130*%
X133990000Y-384600000D03*
X133990000Y-383640000D03*
%TD*%
D15*
%TO.C,C33*%
X143225000Y-343100000D03*
X144775000Y-343100000D03*
%TD*%
D13*
%TO.C,D57*%
X197550000Y-213900000D03*
X197550000Y-217100000D03*
X202450000Y-217100000D03*
X202450000Y-213900000D03*
%TD*%
D15*
%TO.C,C86*%
X283225000Y-157100000D03*
X284775000Y-157100000D03*
%TD*%
D13*
%TO.C,D36*%
X141550000Y-244900000D03*
X141550000Y-248100000D03*
X146450000Y-248100000D03*
X146450000Y-244900000D03*
%TD*%
D15*
%TO.C,C69*%
X227225000Y-250100000D03*
X228775000Y-250100000D03*
%TD*%
D17*
%TO.C,R15*%
X167250000Y-396460000D03*
X167250000Y-395440000D03*
%TD*%
D13*
%TO.C,D51*%
X169550000Y-306900000D03*
X169550000Y-310100000D03*
X174450000Y-310100000D03*
X174450000Y-306900000D03*
%TD*%
D15*
%TO.C,C1*%
X-775000Y-3600000D03*
X775000Y-3600000D03*
%TD*%
%TO.C,C73*%
X255225000Y-343100000D03*
X256775000Y-343100000D03*
%TD*%
D33*
%TO.C,U5*%
X115560000Y-391510000D03*
X117560000Y-391510000D03*
X119560000Y-391510000D03*
X121560000Y-391510000D03*
X123560000Y-391510000D03*
X125560000Y-391510000D03*
X127560000Y-391510000D03*
X129560000Y-391510000D03*
D34*
X131060000Y-388910000D03*
X131060000Y-386910000D03*
X131060000Y-384910000D03*
X131060000Y-382910000D03*
X131060000Y-380910000D03*
X131060000Y-378910000D03*
D33*
X129560000Y-376310000D03*
X127560000Y-376310000D03*
X125560000Y-376310000D03*
X123560000Y-376310000D03*
X121560000Y-376310000D03*
X119560000Y-376310000D03*
X117560000Y-376310000D03*
X115560000Y-376310000D03*
%TD*%
D15*
%TO.C,C94*%
X311225000Y-312100000D03*
X312775000Y-312100000D03*
%TD*%
D13*
%TO.C,D114*%
X397550000Y-398400000D03*
X397550000Y-401600000D03*
X402450000Y-401600000D03*
X402450000Y-398400000D03*
%TD*%
%TO.C,D65*%
X225550000Y-120900000D03*
X225550000Y-124100000D03*
X230450000Y-124100000D03*
X230450000Y-120900000D03*
%TD*%
%TO.C,D35*%
X141550000Y-275900000D03*
X141550000Y-279100000D03*
X146450000Y-279100000D03*
X146450000Y-275900000D03*
%TD*%
D15*
%TO.C,C77*%
X255225000Y-219100000D03*
X256775000Y-219100000D03*
%TD*%
%TO.C,C113*%
X339225000Y-343100000D03*
X340775000Y-343100000D03*
%TD*%
%TO.C,C16*%
X87225000Y-250100000D03*
X88775000Y-250100000D03*
%TD*%
%TO.C,C109*%
X339225000Y-219100000D03*
X340775000Y-219100000D03*
%TD*%
%TO.C,C95*%
X311225000Y-281100000D03*
X312775000Y-281100000D03*
%TD*%
%TO.C,C61*%
X199225000Y-95100000D03*
X200775000Y-95100000D03*
%TD*%
D13*
%TO.C,D28*%
X113550000Y-213900000D03*
X113550000Y-217100000D03*
X118450000Y-217100000D03*
X118450000Y-213900000D03*
%TD*%
D15*
%TO.C,C18*%
X87225000Y-188100000D03*
X88775000Y-188100000D03*
%TD*%
D13*
%TO.C,D84*%
X281550000Y-89900000D03*
X281550000Y-93100000D03*
X286450000Y-93100000D03*
X286450000Y-89900000D03*
%TD*%
%TO.C,D8*%
X57550000Y-244900000D03*
X57550000Y-248100000D03*
X62450000Y-248100000D03*
X62450000Y-244900000D03*
%TD*%
%TO.C,D3*%
X57550000Y-89900000D03*
X57550000Y-93100000D03*
X62450000Y-93100000D03*
X62450000Y-89900000D03*
%TD*%
%TO.C,D18*%
X85550000Y-182900000D03*
X85550000Y-186100000D03*
X90450000Y-186100000D03*
X90450000Y-182900000D03*
%TD*%
D15*
%TO.C,C54*%
X199225000Y-312100000D03*
X200775000Y-312100000D03*
%TD*%
D13*
%TO.C,D48*%
X169550000Y-213900000D03*
X169550000Y-217100000D03*
X174450000Y-217100000D03*
X174450000Y-213900000D03*
%TD*%
%TO.C,D91*%
X281550000Y-306900000D03*
X281550000Y-310100000D03*
X286450000Y-310100000D03*
X286450000Y-306900000D03*
%TD*%
M02*
