M48
; DRILL file {KiCad 9.0.0} date 2025-07-16T11:25:15+0200
; FORMAT={-:-/ absolute / inch / decimal}
; #@! TF.CreationDate,2025-07-16T11:25:15+02:00
; #@! TF.GenerationSoftware,Kicad,Pcbnew,9.0.0
; #@! TF.FileFunction,Plated,1,2,PTH
FMAT,2
INCH
; #@! TA.AperFunction,Plated,PTH,ViaDrill
T1C0.0157
; #@! TA.AperFunction,Plated,PTH,ViaDrill
T2C0.0197
; #@! TA.AperFunction,Plated,PTH,ComponentDrill
T3C0.0315
; #@! TA.AperFunction,Plated,PTH,ComponentDrill
T4C0.0512
; #@! TA.AperFunction,Plated,PTH,ComponentDrill
T5C0.0551
%
G90
G05
T1
X3.8941Y-15.0783
X3.9256Y-14.9646
X4.553Y-14.7169
X4.5986Y-15.5134
X4.6278Y-14.739
X4.8041Y-14.7118
X4.8114Y-14.6563
X4.9953Y-15.5193
X5.0663Y-14.7362
X5.2496Y-15.4563
X5.2573Y-14.7665
X5.3213Y-15.2496
X5.4191Y-15.0882
X5.4496Y-14.948
X5.4587Y-15.126
X5.499Y-15.1638
X5.7175Y-15.2236
X5.7222Y-15.2697
X5.7372Y-14.9205
X5.7902Y-15.3811
X6.0006Y-15.4421
X6.032Y-14.9617
X6.04Y-15.4579
X6.1108Y-14.8543
X6.1311Y-15.4878
X6.1839Y-15.465
X6.248Y-15.1972
X6.2524Y-15.25
X6.3276Y-15.1346
X6.4354Y-14.803
X6.4486Y-14.6787
X6.8035Y-15.5374
T2
X0.1465Y-15.4953
X0.2634Y-15.5929
X1.278Y-13.765
X1.8854Y-14.2441
X1.888Y-1.2876
X2.0016Y-14.2114
X2.0079Y-1.1713
X2.1008Y-14.2594
X2.1059Y-1.5776
X2.1189Y-14.6047
X2.2711Y-1.4191
X2.2717Y-13.8669
X2.4744Y-13.6953
X2.5028Y-13.8602
X3.4134Y-13.5965
X3.5614Y-2.1984
X3.7661Y-2.2024
X5.3583Y-13.5866
X5.563Y-13.5906
X5.7685Y-2.2008
X5.9732Y-2.2047
X6.0675Y-14.685
X7.5669Y-13.5866
X7.7717Y-13.5906
X7.9709Y-2.2004
X8.1756Y-2.2043
X9.7724Y-13.5874
X9.9772Y-13.5913
X10.1764Y-2.2012
X10.3811Y-2.2051
X11.9772Y-13.5846
X12.1819Y-13.5886
X12.2063Y-2.1638
X12.2094Y-1.8083
X12.3787Y-2.1402
X12.5949Y-1.7862
X13.335Y-13.6165
X13.3957Y-2.1697
X13.4469Y-13.8929
X13.8079Y-13.9524
X13.8441Y-1.0189
X15.5709Y-15.7693
T3
X7.7248Y-0.3957
X8.024Y-0.3957
T4
X8.5469Y-1.1988
X8.5469Y-1.3957
T5
X7.8743Y-15.434
T3
G00X6.6533Y-15.6364
M15
G01X6.6533Y-15.6679
M16
G05
G00X6.6533Y-15.8049
M15
G01X6.6533Y-15.8286
M16
G05
G00X6.9939Y-15.6364
M15
G01X6.9939Y-15.6679
M16
G05
G00X6.9939Y-15.8049
M15
G01X6.9939Y-15.8286
M16
G05
G00X7.6873Y-15.4812
M15
G01X7.6873Y-15.5285
M16
G05
G00X7.6873Y-15.6663
M15
G01X7.6873Y-15.7135
M16
G05
G00X7.9176Y-15.6702
M15
G01X7.831Y-15.6702
M16
G05
G00X8.0613Y-15.4812
M15
G01X8.0613Y-15.5285
M16
G05
G00X8.0613Y-15.6663
M15
G01X8.0613Y-15.7135
M16
G05
M30
